<svg xmlns="http://www.w3.org/2000/svg" viewBox="0 0 256 256">
  <defs>
    <linearGradient id="bg" x1="0" y1="0" x2="1" y2="1">
      <stop offset="0%" stop-color="#081426" />
      <stop offset="100%" stop-color="#0f2a44" />
    </linearGradient>
    <linearGradient id="accent" x1="0" y1="0" x2="1" y2="1">
      <stop offset="0%" stop-color="#24d6a0" />
      <stop offset="100%" stop-color="#1ea7ff" />
    </linearGradient>
  </defs>

  <rect width="256" height="256" rx="52" fill="url(#bg)" />

  <g opacity="0.4" stroke="#4ec8ff" stroke-width="4" fill="none">
    <path d="M34 54h34v34H34z" />
    <path d="M188 34h34v34h-34z" />
    <path d="M34 188h34v34H34z" />
    <path d="M68 71h55M205 68v48M71 188v-48M68 205h48" />
  </g>

  <g fill="url(#accent)">
    <rect x="74" y="148" width="22" height="44" rx="6" />
    <rect x="106" y="126" width="22" height="66" rx="6" />
    <rect x="138" y="104" width="22" height="88" rx="6" />
    <rect x="170" y="84" width="22" height="108" rx="6" />
  </g>

  <path
    d="M70 134l34-20 28 14 42-34"
    fill="none"
    stroke="#7fffd4"
    stroke-width="8"
    stroke-linecap="round"
    stroke-linejoin="round"
  />
  <circle cx="174" cy="94" r="9" fill="#7fffd4" />

  <circle cx="64" cy="86" r="20" fill="#0d3558" stroke="#35e6b5" stroke-width="5" />
  <path d="M58 91h12M64 79v24" stroke="#35e6b5" stroke-width="5" stroke-linecap="round" />
</svg>
